<svg width="101" height="44" viewBox="0 0 101 44" fill="none" xmlns="http://www.w3.org/2000/svg">
<path fill-rule="evenodd" clip-rule="evenodd" d="M35.7504 0.359687C33.3188 1.49283 33.1215 4.91955 35.4009 6.42915C36.1364 6.91627 37.5731 7.08136 38.4776 6.78254C39.7286 6.3693 40.8114 4.83015 40.8114 3.46513C40.8114 2.1482 39.8457 0.724386 38.5973 0.200782C37.8365 -0.118235 36.632 -0.0511451 35.7504 0.359687ZM9.55712 7.00552C5.85535 7.69482 2.89924 9.90306 1.27868 13.1894C0.214125 15.3484 0.0683085 16.0763 0.0702668 19.22C0.0719238 21.8944 0.0791546 21.9545 0.566768 23.366C2.34339 28.509 6.49345 31.3928 12.118 31.3928C16.4447 31.3928 19.9243 29.667 22.0453 26.469C22.6025 25.6288 23.4911 23.6627 23.4911 23.2698C23.4911 23.1029 22.8893 23.0645 20.2766 23.0645H17.062L16.8989 23.4228C16.6524 23.9642 15.814 24.8664 15.1926 25.259C13.6144 26.2562 11.0298 26.362 9.28236 25.501C7.4256 24.5861 6.28813 22.8153 5.98746 20.3718C5.55649 16.8681 6.88451 13.8641 9.38449 12.688C10.9113 11.9696 12.9584 11.9512 14.5185 12.642C15.3377 13.0046 16.6112 14.1638 16.8654 14.7782L17.0503 15.2247H20.2706C24.0051 15.2247 23.779 15.3654 22.9816 13.5375C21.1036 9.23246 17.1071 6.77124 12.0426 6.80079C11.2556 6.80546 10.1371 6.89758 9.55712 7.00552ZM85.7157 6.93813C81.2163 7.87378 77.7848 10.9975 76.3641 15.4509C75.8441 17.0806 75.7665 20.1792 76.199 22.0518C76.7314 24.3577 77.8425 26.3585 79.4941 27.9853C80.5847 29.0596 81.3678 29.593 82.8915 30.2992C84.4907 31.0404 85.7318 31.3463 87.5874 31.4562C93.2765 31.7931 98.2355 28.5236 100.022 23.2578C100.482 21.9019 100.528 21.5992 100.586 19.5033C100.64 17.5448 100.604 17.0457 100.331 15.9603C99.6947 13.4309 98.2816 11.1158 96.4262 9.56294C95.3247 8.64086 93.2208 7.53968 91.8052 7.14408C90.7566 6.85099 86.7813 6.71651 85.7157 6.93813ZM27.1468 15.3378C27.2206 24.4868 27.1978 24.2591 28.2683 26.5678L28.809 27.7342L27.367 31.0146C26.5737 32.8186 25.9445 34.3147 25.9688 34.3388C25.993 34.363 27.7332 33.3089 29.8359 31.9964C34.3977 29.1487 34.3032 29.2009 33.3651 30.0492L32.6193 30.7237L33.4404 30.9686C34.851 31.3891 36.3058 31.5492 37.877 31.4568C42.5433 31.1825 45.7419 28.8335 47.0412 24.7268C47.337 23.7915 47.3549 23.3324 47.4056 15.4132L47.4589 7.08347H44.801H42.1433L42.5333 7.54737L42.9233 8.01112V12.3038C42.9233 17.2907 42.9062 17.371 41.7701 17.6751C41.3897 17.7769 41.0599 17.9287 41.0375 18.0124C41.0151 18.0962 40.8478 19.6572 40.6659 21.4815C40.4841 23.3057 40.2644 24.9872 40.1778 25.218C39.709 26.468 38.0207 26.5783 37.374 25.4013C37.2372 25.1526 37.2074 25.144 37.2036 25.3526C37.1968 25.7286 36.4717 26.2307 35.936 26.2299C35.678 26.2296 35.2532 26.0991 34.9921 25.9397C34.3985 25.5774 34.3245 25.2513 33.8733 21.0068L33.5345 17.8183L32.9856 17.7306C32.675 17.6808 32.2769 17.4725 32.0687 17.2507L31.7008 16.8589V12.3602V7.86156L32.066 7.47259L32.4313 7.08347H29.7557H27.08L27.1468 15.3378ZM49.8527 7.13262C49.8527 7.18825 51.6748 12.3426 52.3403 14.1694C52.5367 14.7084 53.9723 18.7609 55.5305 23.175L58.3637 31.2006L62.0739 31.2032L65.7842 31.2057L66.4909 29.2081C66.8795 28.1095 67.3573 26.7695 67.5527 26.2305C68.8443 22.6683 74.2559 7.31158 74.2559 7.20921C74.2559 7.14001 72.88 7.08347 71.1983 7.08347H68.1407L65.1537 16.1293C63.5108 21.1045 62.1234 25.1752 62.0704 25.1752C62.0175 25.1752 61.7839 24.5751 61.551 23.8418C61.3183 23.1084 59.9942 19.0548 58.6086 14.8337L56.0894 7.15885L52.971 7.11815C51.256 7.09568 49.8527 7.10231 49.8527 7.13262ZM91.0035 12.5514C93.5018 13.678 94.8915 16.3285 94.6972 19.5955C94.5424 22.1962 93.5226 24.1628 91.7826 25.2162C89.8688 26.375 87.2195 26.4811 85.2543 25.4776C82.8209 24.2352 81.5278 21.2873 81.9473 17.9383C82.3042 15.0904 83.7576 13.1121 86.0417 12.3653C87.4144 11.9165 89.7939 12.0058 91.0035 12.5514ZM1.95444 37.7056C1.26452 37.9811 0.563153 38.6297 0.279803 39.2541C-0.0586791 40.0001 -0.0969407 41.4146 0.202677 42.1033C1.08993 44.1427 3.7871 44.634 5.37437 43.0453C6.20287 42.2161 6.21688 41.91 5.42618 41.91C4.97036 41.91 4.7319 42.0134 4.38332 42.3623C4.0114 42.7345 3.80804 42.8146 3.23441 42.8146C2.29654 42.8146 1.75861 42.5048 1.43007 41.7755C1.10876 41.0624 1.16887 40.019 1.56625 39.412C2.14093 38.5341 3.58765 38.3802 4.35425 39.1151C4.65176 39.4005 4.91387 39.4978 5.38521 39.4978C6.12138 39.4978 6.16807 39.3473 5.64461 38.6606C4.91974 37.7093 3.1145 37.2422 1.95444 37.7056ZM9.02989 39.8896C9.02989 42.5592 9.13865 42.9568 10.0363 43.5684C10.8009 44.0895 12.1677 44.0997 12.9877 43.5907C13.9636 42.985 14.0762 42.6083 14.0762 39.9501V37.6132H13.4737H12.8711L12.7958 40.0003C12.7103 42.7127 12.6633 42.8146 11.4975 42.8146C10.9876 42.8146 10.7967 42.7348 10.5473 42.4173C10.2632 42.0559 10.235 41.818 10.235 39.7789V37.5378H9.63244H9.02989V39.8896ZM18.2137 37.6615C17.408 38.0188 17.0137 38.5982 17.0137 39.424C17.0137 40.1789 17.5935 40.7221 18.8433 41.1384C19.3919 41.3211 19.965 41.608 20.117 41.776C20.3684 42.0541 20.3729 42.1175 20.167 42.4856C19.8175 43.1111 18.6403 43.1295 18.4446 42.5128C18.3116 42.093 17.0137 42.0629 17.0137 42.4794C17.0137 42.9218 17.4675 43.433 18.1258 43.7321C19.8544 44.5178 21.7021 43.481 21.4834 41.848C21.3792 41.0705 20.8994 40.6403 19.7705 40.3117C18.7099 40.0031 18.1688 39.5097 18.3498 39.0164C18.531 38.5225 19.6217 38.4314 19.9055 38.8864C20.1685 39.3078 21.3822 39.3423 21.3822 38.9283C21.3822 38.5063 20.9367 37.9775 20.3881 37.748C19.869 37.5309 18.6201 37.4812 18.2137 37.6615ZM24.0936 38.0655V38.5932H24.9221H25.7507V41.2316V43.8699H26.4285H27.1064V41.2316V38.5932H27.9349H28.7634V38.0655V37.5378H26.4285H24.0936V38.0655ZM33.0566 37.8237C31.552 38.5208 30.8211 40.2082 31.345 41.7745C32.0676 43.9342 34.7532 44.6862 36.5247 43.2248C37.8744 42.1113 38.035 39.9198 36.863 38.6098C35.9336 37.5709 34.3209 37.2378 33.0566 37.8237ZM40.463 37.6384C40.4077 37.6936 40.3625 39.1183 40.3625 40.8044V43.8699H41.0358H41.7092L41.7514 41.9477L41.7935 40.0255L42.5705 41.91C43.337 43.7689 43.3545 43.7952 43.8609 43.8396L44.3743 43.8849L45.1928 41.8797L46.0114 39.8747L46.0534 41.8723L46.0955 43.8699H46.6936H47.2918V40.6956V37.5213L46.6025 37.5672L45.9132 37.6132L44.9603 39.8474C44.436 41.0761 43.9675 42.1212 43.9192 42.1698C43.8294 42.2596 43.62 41.8144 42.4683 39.0832L41.8166 37.5378H41.1899C40.8453 37.5378 40.5181 37.5831 40.463 37.6384ZM50.4552 40.7039V43.8699H52.2629H54.0705V43.4176V42.9654H52.8654H51.6603V42.0608V41.1562H52.7148H53.7692V40.7039V40.2516H52.7148H51.6603V39.4224V38.5932H52.8654H54.0705V38.0655V37.5378H52.2629H50.4552V40.7039ZM57.0189 37.7896C56.9659 37.9282 56.9299 39.3529 56.9393 40.9557L56.956 43.8699H57.6222H58.2884V42.6638C58.2884 41.5783 58.317 41.4577 58.5753 41.4577C58.7748 41.4577 59.0779 41.8257 59.5688 42.6638L60.2753 43.8699H60.9388C61.3038 43.8699 61.6024 43.8416 61.6024 43.8071C61.6024 43.7724 61.29 43.2152 60.9081 42.5687C60.4026 41.713 60.2694 41.3749 60.4185 41.3259C60.5311 41.2889 60.8518 41.0304 61.1312 40.7517C61.6128 40.2712 61.6355 40.2008 61.5686 39.3936C61.5119 38.7088 61.4197 38.4747 61.0981 38.1977C60.546 37.7225 59.7815 37.5397 58.3421 37.5387C57.3347 37.538 57.0982 37.5828 57.0189 37.7896ZM66.4217 37.7263C66.4213 37.83 66.9113 39.2546 67.511 40.8923L68.601 43.8699H69.3787C69.9796 43.8699 70.18 43.8099 70.26 43.6061C70.5433 42.8836 72.4483 37.6562 72.4483 37.6013C72.4483 37.4739 71.2584 37.5419 71.1769 37.674C71.1307 37.7488 70.7459 38.8174 70.3219 40.0485C69.8978 41.2797 69.5011 42.3413 69.4402 42.4078C69.3793 42.4743 68.9389 41.4057 68.4614 40.0333L67.5932 37.5378H67.008C66.6408 37.5378 66.4225 37.6081 66.4217 37.7263ZM76.6661 37.7779C75.8134 38.1469 75.1735 38.8765 74.9115 39.7785C73.9928 42.9415 77.6195 45.3079 80.1126 43.1721C81.7759 41.7472 81.4694 38.9069 79.5423 37.8887C78.7567 37.4736 77.4824 37.4245 76.6661 37.7779ZM84.0043 37.6312C83.9451 37.6904 83.8967 39.1183 83.8967 40.8044V43.8699H84.5776H85.2587L85.2178 40.7416L85.1772 37.6132L84.6445 37.5683C84.3517 37.5437 84.0635 37.5719 84.0043 37.6312ZM89.6187 37.8964C87.7666 38.8792 87.411 41.5871 88.9404 43.0593C89.9985 44.0775 91.428 44.2609 92.8098 43.5554C93.3092 43.3005 94.1401 42.345 94.1401 42.0258C94.1401 41.9622 93.861 41.91 93.5198 41.91C93.0453 41.91 92.7785 42.0163 92.3847 42.3623C91.9611 42.7345 91.738 42.8146 91.1245 42.8146C90.5236 42.8146 90.2892 42.7341 89.9165 42.4C88.6957 41.3054 89.2264 38.9448 90.7578 38.6573C91.3762 38.5412 92.287 38.826 92.5269 39.2104C92.6626 39.428 92.8812 39.4978 93.427 39.4978H94.1478L93.9324 39.0832C93.1923 37.6595 91.1328 37.0928 89.6187 37.8964ZM97.0022 40.6992V43.8699H98.8951H100.788L100.74 43.4553C100.694 43.0489 100.669 43.0392 99.4877 42.9654L98.2826 42.89V42.0608V41.2316L99.3747 41.1872L100.467 41.1429V40.7039V40.2649L99.3747 40.2205L98.2826 40.1762V39.4224V38.6686L99.4877 38.5932L100.693 38.5178V38.0655V37.6132L98.8475 37.5709L97.0022 37.5285V40.6992ZM35.311 38.8074C36.4821 39.2971 36.7722 41.4182 35.7938 42.338C34.479 43.5743 32.4638 42.642 32.4655 40.7981C32.4668 39.1007 33.7933 38.1729 35.311 38.8074ZM60.096 38.8947C60.2617 39.0606 60.3973 39.3659 60.3973 39.5732C60.3973 40.1961 59.9033 40.5531 59.0415 40.5531H58.2884V39.5732V38.5932H59.0415C59.5939 38.5932 59.875 38.6735 60.096 38.8947ZM78.8245 38.7988C80.0207 39.2991 80.344 41.1242 79.4291 42.2123C78.6289 43.1642 77.0906 43.0873 76.3948 42.0608C75.8995 41.33 75.9666 39.8587 76.5223 39.26C77.1563 38.5772 77.9259 38.423 78.8245 38.7988Z" fill="white"/>
</svg>
