<svg width="21" height="20" viewBox="0 0 21 20" fill="none" xmlns="http://www.w3.org/2000/svg">
<path fill-rule="evenodd" clip-rule="evenodd" d="M0.672007 0.0480849C0.585144 0.0711517 0.427464 0.166271 0.321662 0.259389C-0.0142117 0.555046 8.80472e-05 0.364808 8.80472e-05 4.53996C8.80472e-05 7.21405 0.0137068 8.27011 0.0500946 8.41451C0.118742 8.68719 0.41776 8.9862 0.690435 9.05485C0.834837 9.09124 1.89089 9.10486 4.56499 9.10486C8.73818 9.10486 8.55007 9.11894 8.84441 8.78452C8.94331 8.6722 9.03222 8.51563 9.06014 8.40472C9.12696 8.13949 9.12696 0.962631 9.06014 0.697405C9.03222 0.586496 8.94331 0.429923 8.84441 0.31761C8.54947 -0.0174983 8.74282 -0.00332616 4.5355 0.00165322C2.2477 0.00437698 0.769551 0.022124 0.672007 0.0480849ZM11.5671 0.0480849C11.4802 0.0711517 11.3225 0.166271 11.2167 0.259389C10.8808 0.555046 10.8951 0.364808 10.8951 4.53996C10.8951 7.21405 10.9088 8.27011 10.9452 8.41451C11.0138 8.68719 11.3128 8.9862 11.5855 9.05485C11.7299 9.09124 12.7859 9.10486 15.46 9.10486C19.6332 9.10486 19.4451 9.11894 19.7395 8.78452C19.8384 8.6722 19.9273 8.51563 19.9552 8.40472C20.022 8.13949 20.022 0.962631 19.9552 0.697405C19.9273 0.586496 19.8384 0.429923 19.7395 0.31761C19.4445 -0.0174983 19.6379 -0.00332616 15.4306 0.00165322C13.1428 0.00437698 11.6646 0.022124 11.5671 0.0480849ZM7.27765 4.55106V7.27483H4.55388H1.83012V4.55106V1.8273H4.55388H7.27765V4.55106ZM18.1727 4.55106V7.27483H15.4489H12.7252V4.55106V1.8273H15.4489H18.1727V4.55106ZM0.672007 10.9431C0.585144 10.9662 0.427464 11.0613 0.321662 11.1544C-0.0142117 11.4501 8.80472e-05 11.2599 8.80472e-05 15.435C8.80472e-05 18.1091 0.0137068 19.1652 0.0500946 19.3096C0.118742 19.5822 0.41776 19.8813 0.690435 19.9499C0.834837 19.9863 1.89089 19.9999 4.56499 19.9999C8.73818 19.9999 8.55007 20.014 8.84441 19.6796C8.94331 19.5673 9.03222 19.4107 9.06014 19.2998C9.12696 19.0346 9.12696 11.8577 9.06014 11.5925C9.03222 11.4816 8.94331 11.325 8.84441 11.2127C8.54947 10.8776 8.74282 10.8917 4.5355 10.8967C2.2477 10.8994 0.769551 10.9172 0.672007 10.9431ZM14.917 10.9407C14.2176 11.0291 13.4768 11.3077 12.8902 11.7031C12.5143 11.9564 12.002 12.4629 11.7439 12.8362C10.6403 14.4326 10.6416 16.4614 11.747 18.0605C12.0005 18.4272 12.5505 18.9697 12.9083 19.206C14.251 20.0927 15.9325 20.2265 17.3418 19.5589C18.3549 19.079 19.0819 18.3537 19.556 17.3499C20.0097 16.3894 20.1045 15.3316 19.8317 14.2758C19.7198 13.8428 19.3492 13.0803 19.0766 12.7224C18.3079 11.7129 17.1818 11.0805 15.8958 10.936C15.4611 10.8872 15.3357 10.8878 14.917 10.9407ZM7.27765 15.4461V18.1699H4.55388H1.83012V15.4461V12.7224H4.55388H7.27765V15.4461ZM16.0235 12.7862C16.7946 12.9475 17.5106 13.5015 17.8662 14.2119C18.4084 15.2953 18.2157 16.5019 17.3626 17.3654C16.306 18.4348 14.6015 18.4341 13.5312 17.3639C12.4615 16.2941 12.4601 14.5958 13.5279 13.5333C14.2003 12.8644 15.1041 12.5938 16.0235 12.7862Z" fill="#2858D3"/>
</svg>
