<svg width="27" height="27" viewBox="0 0 27 27" fill="none" xmlns="http://www.w3.org/2000/svg">
<path d="M21.5999 17.9953H11.4749C10.9214 17.9953 10.4624 17.5363 10.4624 16.9828C10.4624 16.4293 10.9214 15.9703 11.4749 15.9703H21.5999C22.1534 15.9703 22.6124 16.4293 22.6124 16.9828C22.6124 17.5363 22.1534 17.9953 21.5999 17.9953Z" fill="#2858D3"/>
<path d="M21.5999 10.9753H11.4749C10.9214 10.9753 10.4624 10.5163 10.4624 9.96276C10.4624 9.40926 10.9214 8.95026 11.4749 8.95026H21.5999C22.1534 8.95026 22.6124 9.40926 22.6124 9.96276C22.6124 10.5163 22.1534 10.9753 21.5999 10.9753Z" fill="#2858D3"/>
<path d="M6.60156 12.0958C6.34506 12.0958 6.10206 12.0013 5.91306 11.8258L4.71156 10.7053C4.30656 10.3273 4.27956 9.67926 4.67106 9.27426C5.04906 8.86926 5.69706 8.84226 6.10206 9.23376L6.56106 9.65226L7.91106 8.19426C8.28906 7.78926 8.93706 7.76226 9.34206 8.14026C9.74706 8.51826 9.77406 9.16626 9.39606 9.57126L7.35756 11.7718C7.16856 11.9743 6.92556 12.0823 6.65556 12.0958H6.61506H6.60156Z" fill="#2858D3"/>
<path d="M6.60156 19.1293C6.34506 19.1293 6.10206 19.0348 5.91306 18.8593L4.71156 17.7388C4.30656 17.3608 4.27956 16.7128 4.67106 16.3078C5.04906 15.9028 5.69706 15.8758 6.10206 16.2673L6.56106 16.6858L7.91106 15.2278C8.28906 14.8228 8.93706 14.7958 9.34206 15.1738C9.74706 15.5518 9.77406 16.1998 9.39606 16.6048L7.35756 18.8053C7.16856 19.0078 6.92556 19.1158 6.65556 19.1293H6.61506H6.60156Z" fill="#2858D3"/>
<path d="M22.95 2.02476C24.0705 2.02476 24.975 2.92926 24.975 4.04976V22.9498C24.975 24.0703 24.0705 24.9748 22.95 24.9748H4.05C2.9295 24.9748 2.025 24.0703 2.025 22.9498V4.04976C2.025 2.92926 2.9295 2.02476 4.05 2.02476H22.95ZM22.95 -0.000244141H4.05C1.809 -0.000244141 0 1.80876 0 4.04976V22.9498C0 25.1908 1.809 26.9998 4.05 26.9998H22.95C25.191 26.9998 27 25.1908 27 22.9498V4.04976C27 1.80876 25.191 -0.000244141 22.95 -0.000244141Z" fill="#2858D3"/>
</svg>
