<svg width="22" height="14" viewBox="0 0 22 14" fill="none" xmlns="http://www.w3.org/2000/svg">
<g opacity="0.8">
<path fill-rule="evenodd" clip-rule="evenodd" d="M5.27132 9.95466C5.12547 10.1012 4.93391 10.1742 4.74218 10.1742C4.55063 10.1742 4.35889 10.1012 4.21212 9.95356L0.237649 5.97909C0.189505 5.93397 0.147324 5.88257 0.112416 5.82619C-0.0672107 5.53725 -0.0315718 5.15248 0.219334 4.90158L4.21212 0.908787C4.50475 0.616342 4.97888 0.616342 5.27132 0.908787C5.56377 1.20123 5.56377 1.67536 5.27132 1.9678L2.555 4.68413H21.1171C21.5303 4.68413 21.8657 5.01953 21.8657 5.43279C21.8657 5.84605 21.5303 6.18145 21.1171 6.18145H2.55731L5.27132 8.89546C5.56377 9.18791 5.56377 9.66203 5.27132 9.95466ZM10.2558 9.74633H21.1171C21.5303 9.74633 21.8657 9.41093 21.8657 8.99767C21.8657 8.58441 21.5303 8.24901 21.1171 8.24901H10.2558C9.84249 8.24901 9.5071 8.58441 9.5071 8.99767C9.5071 9.41093 9.84249 9.74633 10.2558 9.74633ZM21.1171 13.3112H10.2558C9.84249 13.3112 9.5071 12.9758 9.5071 12.5625C9.5071 12.1493 9.84249 11.8139 10.2558 11.8139H21.1171C21.5303 11.8139 21.8657 12.1493 21.8657 12.5625C21.8657 12.9758 21.5303 13.3112 21.1171 13.3112Z" fill="#010101"/>
</g>
</svg>
