<svg width="38" height="38" viewBox="0 0 38 38" fill="none" xmlns="http://www.w3.org/2000/svg">
<path fill-rule="evenodd" clip-rule="evenodd" d="M5.30497 24.1024C4.87306 24.4726 4.25567 24.533 3.76022 24.2535C3.26477 23.974 2.99719 23.4143 3.09071 22.8532L3.53831 20.1676C2.07659 19.7769 1 18.4435 1 16.8586V4.42479C1 2.53337 2.53337 1 4.42479 1H18.2402C20.1316 1 21.6649 2.53337 21.6649 4.42479V13.572H33.5751C35.4665 13.572 36.9999 15.1053 36.9999 16.9968V29.4306C36.9999 31.0155 35.9233 32.3489 34.4616 32.7395L34.9092 35.4252C35.0027 35.9863 34.7351 36.5459 34.2397 36.8255C33.7442 37.105 33.1268 37.0446 32.6949 36.6744L28.2394 32.8554H19.7597C17.8683 32.8554 16.335 31.322 16.335 29.4306V20.2834H9.76048L5.30497 24.1024ZM17.6835 17.5784H9.26016C8.93731 17.5784 8.62511 17.6939 8.37998 17.904L6.37081 19.6262L6.44963 19.1533C6.51499 18.7611 6.4045 18.3601 6.14752 18.0567C5.89055 17.7534 5.51312 17.5784 5.11555 17.5784H4.42479C4.02727 17.5784 3.70496 17.2561 3.70496 16.8586V4.42479C3.70496 4.02727 4.02727 3.70496 4.42479 3.70496H18.2402C18.6377 3.70496 18.96 4.02727 18.96 4.42479V14.9079L18.9599 14.9245V16.8586C18.9599 17.2561 18.6376 17.5784 18.2401 17.5784H17.6874L17.6835 17.5784ZM19.0399 20.1895V29.4306C19.0399 29.8281 19.3622 30.1504 19.7597 30.1504H28.7397C29.0626 30.1504 29.3748 30.2659 29.6199 30.476L31.6291 32.1982L31.5503 31.7253C31.4849 31.3331 31.5954 30.932 31.8524 30.6287C32.1094 30.3253 32.4868 30.1504 32.8843 30.1504H33.5751C33.9726 30.1504 34.2949 29.8281 34.2949 29.4306V16.9968C34.2949 16.5992 33.9727 16.2769 33.5751 16.2769H21.6649V16.8586C21.6649 18.4746 20.5456 19.8293 19.0399 20.1895ZM30.4168 28.6237C31.1157 28.3599 31.4684 27.5796 31.2047 26.8808L28.1204 18.7079C28.1157 18.6956 28.1109 18.6833 28.1059 18.671C27.5821 17.3975 25.7769 17.3983 25.2555 18.6741C25.2514 18.6842 25.2474 18.6943 25.2435 18.7044L22.1309 26.8769C21.8651 27.575 22.2154 28.3564 22.9135 28.6222C23.6115 28.8881 24.3929 28.5377 24.6588 27.8397L25.1022 26.6754H28.236L28.6739 27.8358C28.9377 28.5347 29.718 28.8874 30.4168 28.6237ZM27.2152 23.9705L26.6763 22.5424L26.1324 23.9705H27.2152ZM16.4328 15.6775C16.961 15.1493 16.961 14.293 16.4328 13.7648L16.0531 13.3851C16.5262 12.5746 16.7973 11.6319 16.7973 10.6258C16.7973 7.5986 14.3433 5.14458 11.3161 5.14458C8.28897 5.14458 5.83496 7.59862 5.83496 10.6258C5.83496 13.6529 8.28898 16.1069 11.3161 16.1069C12.3561 16.1069 13.3285 15.8173 14.1569 15.3142L14.5201 15.6774C15.0483 16.2056 15.9046 16.2056 16.4328 15.6775ZM14.0014 11.3333C14.0607 11.1074 14.0923 10.8703 14.0923 10.6258C14.0923 9.09251 12.8494 7.84954 11.3161 7.84954C9.78291 7.84954 8.53992 9.0925 8.53992 10.6258C8.53992 12.159 9.78289 13.402 11.3161 13.402C11.5975 13.402 11.8691 13.3601 12.125 13.2823L11.8785 13.0358C11.3504 12.5076 11.3504 11.6513 11.8786 11.1231C12.4067 10.5949 13.2631 10.5949 13.7913 11.1231L14.0014 11.3333Z" fill="#2858D3"/>
<path d="M3.76022 24.2535L3.51454 24.689H3.51454L3.76022 24.2535ZM5.30497 24.1024L4.97957 23.7228H4.97957L5.30497 24.1024ZM3.09071 22.8532L2.59751 22.771L3.09071 22.8532ZM3.53831 20.1676L4.03151 20.2498C4.07385 19.9957 3.91625 19.751 3.6674 19.6845L3.53831 20.1676ZM21.6649 13.572H21.1649C21.1649 13.8481 21.3888 14.072 21.6649 14.072V13.572ZM34.4616 32.7395L34.3325 32.2565C34.0837 32.323 33.926 32.5677 33.9684 32.8217L34.4616 32.7395ZM34.9092 35.4252L34.416 35.5074L34.9092 35.4252ZM32.6949 36.6744L33.0203 36.2948L33.0203 36.2948L32.6949 36.6744ZM28.2394 32.8554L28.5648 32.4758C28.4742 32.3981 28.3588 32.3554 28.2394 32.3554V32.8554ZM16.335 20.2834H16.835C16.835 20.0073 16.6111 19.7834 16.335 19.7834V20.2834ZM9.76048 20.2834V19.7834C9.64112 19.7834 9.5257 19.8261 9.43508 19.9038L9.76048 20.2834ZM17.6835 17.5784V18.0784L17.6842 18.0784L17.6835 17.5784ZM8.37998 17.904L8.70538 18.2837H8.70538L8.37998 17.904ZM6.37081 19.6262L5.87761 19.544C5.84304 19.7514 5.94197 19.9583 6.12513 20.0617C6.30829 20.165 6.53653 20.1427 6.69621 20.0058L6.37081 19.6262ZM6.44963 19.1533L6.94283 19.2355L6.44963 19.1533ZM6.14752 18.0567L5.76601 18.3799H5.76601L6.14752 18.0567ZM18.96 14.9079L19.46 14.9109V14.9079H18.96ZM18.9599 14.9245L18.4599 14.9215V14.9245H18.9599ZM17.6874 17.5784V17.0784L17.6867 17.0784L17.6874 17.5784ZM19.0399 20.1895L18.9236 19.7032C18.6986 19.7571 18.5399 19.9582 18.5399 20.1895H19.0399ZM29.6199 30.476L29.9453 30.0964L29.6199 30.476ZM31.6291 32.1982L31.3037 32.5778C31.4634 32.7147 31.6916 32.737 31.8748 32.6337C32.0579 32.5303 32.1569 32.3234 32.1223 32.116L31.6291 32.1982ZM31.5503 31.7253L31.0571 31.8075V31.8075L31.5503 31.7253ZM31.8524 30.6287L32.2339 30.9519L32.2339 30.9519L31.8524 30.6287ZM21.6649 16.2769V15.7769C21.3888 15.7769 21.1649 16.0008 21.1649 16.2769H21.6649ZM31.2047 26.8808L31.6725 26.7042L31.6725 26.7042L31.2047 26.8808ZM30.4168 28.6237L30.5934 29.0915L30.4168 28.6237ZM28.1204 18.7079L27.6526 18.8845L27.6526 18.8845L28.1204 18.7079ZM28.1059 18.671L27.6434 18.8612L27.6434 18.8612L28.1059 18.671ZM25.2555 18.6741L25.7183 18.8634L25.7183 18.8633L25.2555 18.6741ZM25.2435 18.7044L24.7763 18.5264L24.7763 18.5265L25.2435 18.7044ZM22.1309 26.8769L21.6637 26.699L22.1309 26.8769ZM22.9135 28.6222L22.7355 29.0895H22.7355L22.9135 28.6222ZM24.6588 27.8397L24.1915 27.6617L24.6588 27.8397ZM25.1022 26.6754V26.1754C24.8947 26.1754 24.7088 26.3036 24.6349 26.4975L25.1022 26.6754ZM28.236 26.6754L28.7038 26.4989C28.6304 26.3042 28.4441 26.1754 28.236 26.1754V26.6754ZM28.6739 27.8358L28.2061 28.0124V28.0124L28.6739 27.8358ZM26.6763 22.5424L27.1441 22.3659C27.0707 22.1715 26.8848 22.0427 26.6771 22.0424C26.4693 22.0421 26.283 22.1703 26.209 22.3644L26.6763 22.5424ZM27.2152 23.9705V24.4705C27.3794 24.4705 27.5331 24.3899 27.6265 24.2548C27.7198 24.1198 27.741 23.9475 27.683 23.7939L27.2152 23.9705ZM26.1324 23.9705L25.6651 23.7925C25.6066 23.9462 25.6274 24.1188 25.7207 24.2542C25.814 24.3896 25.968 24.4705 26.1324 24.4705V23.9705ZM16.4328 13.7648L16.0793 14.1183L16.0793 14.1183L16.4328 13.7648ZM16.4328 15.6775L16.0793 15.3239L16.4328 15.6775ZM16.0531 13.3851L15.6213 13.133C15.5068 13.3292 15.5389 13.578 15.6996 13.7386L16.0531 13.3851ZM14.1569 15.3142L14.5105 14.9607C14.3475 14.7977 14.0944 14.7673 13.8974 14.8868L14.1569 15.3142ZM14.5201 15.6774L14.8737 15.3239H14.8737L14.5201 15.6774ZM14.0014 11.3333L13.6478 11.6868C13.7744 11.8134 13.9591 11.8627 14.132 11.8159C14.3048 11.7691 14.4395 11.6335 14.485 11.4603L14.0014 11.3333ZM12.125 13.2823L12.2705 13.7606C12.4385 13.7095 12.5674 13.574 12.6101 13.4036C12.6527 13.2332 12.6028 13.0529 12.4786 12.9287L12.125 13.2823ZM11.8785 13.0358L11.525 13.3894L11.8785 13.0358ZM11.8786 11.1231L12.2321 11.4767L11.8786 11.1231ZM13.7913 11.1231L13.4377 11.4767L13.4377 11.4767L13.7913 11.1231ZM3.51454 24.689C4.19315 25.0718 5.03878 24.9891 5.63036 24.482L4.97957 23.7228C4.70734 23.9561 4.31819 23.9942 4.0059 23.818L3.51454 24.689ZM2.59751 22.771C2.46942 23.5395 2.83593 24.3061 3.51454 24.689L4.0059 23.818C3.69362 23.6418 3.52496 23.2891 3.5839 22.9354L2.59751 22.771ZM3.04511 20.0854L2.59751 22.771L3.5839 22.9354L4.03151 20.2498L3.04511 20.0854ZM0.5 16.8586C0.5 18.6756 1.73427 20.203 3.40922 20.6506L3.6674 19.6845C2.4189 19.3509 1.5 18.2114 1.5 16.8586H0.5ZM0.5 4.42479V16.8586H1.5V4.42479H0.5ZM4.42479 0.5C2.25722 0.5 0.5 2.25722 0.5 4.42479H1.5C1.5 2.80951 2.80951 1.5 4.42479 1.5V0.5ZM18.2402 0.5H4.42479V1.5H18.2402V0.5ZM22.1649 4.42479C22.1649 2.25722 20.4077 0.5 18.2402 0.5V1.5C19.8554 1.5 21.1649 2.80951 21.1649 4.42479H22.1649ZM22.1649 13.572V4.42479H21.1649V13.572H22.1649ZM33.5751 13.072H21.6649V14.072H33.5751V13.072ZM37.4999 16.9968C37.4999 14.8291 35.7426 13.072 33.5751 13.072V14.072C35.1904 14.072 36.4999 15.3814 36.4999 16.9968H37.4999ZM37.4999 29.4306V16.9968H36.4999V29.4306H37.4999ZM34.5907 33.2226C36.2656 32.775 37.4999 31.2475 37.4999 29.4306H36.4999C36.4999 30.7834 35.581 31.9229 34.3325 32.2565L34.5907 33.2226ZM35.4024 35.343L34.9548 32.6573L33.9684 32.8217L34.416 35.5074L35.4024 35.343ZM34.4854 37.2609C35.164 36.8781 35.5305 36.1115 35.4024 35.343L34.416 35.5074C34.4749 35.861 34.3063 36.2138 33.994 36.39L34.4854 37.2609ZM32.3695 37.054C32.9611 37.5611 33.8068 37.6438 34.4854 37.2609L33.994 36.39C33.6817 36.5662 33.2926 36.5281 33.0203 36.2948L32.3695 37.054ZM27.914 33.235L32.3695 37.054L33.0203 36.2948L28.5648 32.4758L27.914 33.235ZM19.7597 33.3554H28.2394V32.3554H19.7597V33.3554ZM15.835 29.4306C15.835 31.5982 17.5922 33.3554 19.7597 33.3554V32.3554C18.1445 32.3554 16.835 31.0459 16.835 29.4306H15.835ZM15.835 20.2834V29.4306H16.835V20.2834H15.835ZM9.76048 20.7834H16.335V19.7834H9.76048V20.7834ZM5.63036 24.482L10.0859 20.663L9.43508 19.9038L4.97957 23.7228L5.63036 24.482ZM9.26016 18.0784H17.6835V17.0784H9.26016V18.0784ZM8.70538 18.2837C8.85989 18.1512 9.05667 18.0784 9.26016 18.0784V17.0784C8.81796 17.0784 8.39034 17.2366 8.05459 17.5244L8.70538 18.2837ZM6.69621 20.0058L8.70538 18.2837L8.05459 17.5244L6.04542 19.2466L6.69621 20.0058ZM5.95643 19.0711L5.87761 19.544L6.86401 19.7084L6.94283 19.2355L5.95643 19.0711ZM5.76601 18.3799C5.92799 18.5711 5.99763 18.8239 5.95643 19.0711L6.94283 19.2355C7.03235 18.6983 6.88101 18.149 6.52903 17.7335L5.76601 18.3799ZM5.11555 18.0784C5.36614 18.0784 5.60404 18.1887 5.76601 18.3799L6.52903 17.7335C6.17706 17.318 5.66009 17.0784 5.11555 17.0784V18.0784ZM4.42479 18.0784H5.11555V17.0784H4.42479V18.0784ZM3.20496 16.8586C3.20496 17.5323 3.75113 18.0784 4.42479 18.0784V17.0784C4.30342 17.0784 4.20496 16.98 4.20496 16.8586H3.20496ZM3.20496 4.42479V16.8586H4.20496V4.42479H3.20496ZM4.42479 3.20496C3.75113 3.20496 3.20496 3.75113 3.20496 4.42479H4.20496C4.20496 4.30342 4.30342 4.20496 4.42479 4.20496V3.20496ZM18.2402 3.20496H4.42479V4.20496H18.2402V3.20496ZM19.46 4.42479C19.46 3.75113 18.9138 3.20496 18.2402 3.20496V4.20496C18.3615 4.20496 18.46 4.30342 18.46 4.42479H19.46ZM19.46 14.9079V4.42479H18.46V14.9079H19.46ZM19.4599 14.9275L19.46 14.9109L18.46 14.9049L18.4599 14.9215L19.4599 14.9275ZM19.4599 16.8586V14.9245H18.4599V16.8586H19.4599ZM18.2401 18.0784C18.9137 18.0784 19.4599 17.5323 19.4599 16.8586H18.4599C18.4599 16.98 18.3614 17.0784 18.2401 17.0784V18.0784ZM17.6874 18.0784H18.2401V17.0784H17.6874V18.0784ZM17.6842 18.0784L17.6882 18.0784L17.6867 17.0784L17.6827 17.0784L17.6842 18.0784ZM19.5399 29.4306V20.1895H18.5399V29.4306H19.5399ZM19.7597 29.6504C19.6384 29.6504 19.5399 29.552 19.5399 29.4306H18.5399C18.5399 30.1043 19.0861 30.6504 19.7597 30.6504V29.6504ZM28.7397 29.6504H19.7597V30.6504H28.7397V29.6504ZM29.9453 30.0964C29.6096 29.8086 29.1819 29.6504 28.7397 29.6504V30.6504C28.9432 30.6504 29.14 30.7232 29.2945 30.8557L29.9453 30.0964ZM31.9545 31.8185L29.9453 30.0964L29.2945 30.8557L31.3037 32.5778L31.9545 31.8185ZM31.0571 31.8075L31.1359 32.2804L32.1223 32.116L32.0435 31.6431L31.0571 31.8075ZM31.4709 30.3055C31.1189 30.721 30.9676 31.2703 31.0571 31.8075L32.0435 31.6431C32.0023 31.3959 32.0719 31.1431 32.2339 30.9519L31.4709 30.3055ZM32.8843 29.6504C32.3398 29.6504 31.8228 29.89 31.4709 30.3055L32.2339 30.9519C32.3959 30.7607 32.6338 30.6504 32.8843 30.6504V29.6504ZM33.5751 29.6504H32.8843V30.6504H33.5751V29.6504ZM33.7949 29.4306C33.7949 29.552 33.6965 29.6504 33.5751 29.6504V30.6504C34.2488 30.6504 34.7949 30.1043 34.7949 29.4306H33.7949ZM33.7949 16.9968V29.4306H34.7949V16.9968H33.7949ZM33.5751 16.7769C33.6965 16.7769 33.7949 16.8754 33.7949 16.9968H34.7949C34.7949 16.3231 34.2488 15.7769 33.5751 15.7769V16.7769ZM21.6649 16.7769H33.5751V15.7769H21.6649V16.7769ZM22.1649 16.8586V16.2769H21.1649V16.8586H22.1649ZM19.1563 20.6758C20.8817 20.263 22.1649 18.7112 22.1649 16.8586H21.1649C21.1649 18.2381 20.2094 19.3956 18.9236 19.7032L19.1563 20.6758ZM30.7369 27.0573C30.9031 27.4978 30.6808 27.9896 30.2403 28.1559L30.5934 29.0915C31.5506 28.7302 32.0337 27.6614 31.6725 26.7042L30.7369 27.0573ZM27.6526 18.8845L30.7369 27.0573L31.6725 26.7042L28.5882 18.5314L27.6526 18.8845ZM27.6434 18.8612C27.6466 18.8689 27.6497 18.8767 27.6526 18.8845L28.5882 18.5314C28.5818 18.5145 28.5752 18.4976 28.5683 18.4808L27.6434 18.8612ZM25.7183 18.8633C26.0704 18.0019 27.2896 18.0009 27.6434 18.8612L28.5683 18.4808C27.8746 16.7942 25.4834 16.7948 24.7927 18.485L25.7183 18.8633ZM25.7108 18.8824C25.7132 18.876 25.7157 18.8696 25.7183 18.8634L24.7927 18.4849C24.787 18.4987 24.7816 18.5126 24.7763 18.5264L25.7108 18.8824ZM22.5982 27.0549L25.7108 18.8824L24.7763 18.5265L21.6637 26.699L22.5982 27.0549ZM23.0914 28.155C22.6514 27.9874 22.4306 27.4949 22.5982 27.0549L21.6637 26.699C21.2995 27.6551 21.7794 28.7253 22.7355 29.0895L23.0914 28.155ZM24.1915 27.6617C24.0239 28.1017 23.5314 28.3225 23.0914 28.155L22.7355 29.0895C23.6916 29.4536 24.7619 28.9737 25.126 28.0176L24.1915 27.6617ZM24.6349 26.4975L24.1915 27.6617L25.126 28.0176L25.5694 26.8534L24.6349 26.4975ZM28.236 26.1754H25.1022V27.1754H28.236V26.1754ZM29.1417 27.6593L28.7038 26.4989L27.7682 26.852L28.2061 28.0124L29.1417 27.6593ZM30.2403 28.1559C29.7998 28.3221 29.308 28.0998 29.1417 27.6593L28.2061 28.0124C28.5674 28.9696 29.6362 29.4527 30.5934 29.0915L30.2403 28.1559ZM26.2085 22.7189L26.7474 24.147L27.683 23.7939L27.1441 22.3659L26.2085 22.7189ZM26.5997 24.1484L27.1436 22.7204L26.209 22.3644L25.6651 23.7925L26.5997 24.1484ZM27.2152 23.4705H26.1324V24.4705H27.2152V23.4705ZM16.0793 14.1183C16.4122 14.4512 16.4122 14.991 16.0793 15.3239L16.7864 16.031C17.5098 15.3076 17.5098 14.1347 16.7864 13.4112L16.0793 14.1183ZM15.6996 13.7386L16.0793 14.1183L16.7864 13.4112L16.4067 13.0315L15.6996 13.7386ZM16.4849 13.6371C17.0015 12.7523 17.2973 11.7228 17.2973 10.6258H16.2973C16.2973 11.5409 16.051 12.397 15.6213 13.133L16.4849 13.6371ZM17.2973 10.6258C17.2973 7.32246 14.6194 4.64458 11.3161 4.64458V5.64458C14.0671 5.64458 16.2973 7.87474 16.2973 10.6258H17.2973ZM11.3161 4.64458C8.01282 4.64458 5.33496 7.32248 5.33496 10.6258H6.33496C6.33496 7.87475 8.56512 5.64458 11.3161 5.64458V4.64458ZM5.33496 10.6258C5.33496 13.929 8.01284 16.6069 11.3161 16.6069V15.6069C8.56513 15.6069 6.33496 13.3768 6.33496 10.6258H5.33496ZM11.3161 16.6069C12.4502 16.6069 13.512 16.2908 14.4164 15.7416L13.8974 14.8868C13.145 15.3437 12.262 15.6069 11.3161 15.6069V16.6069ZM14.8737 15.3239L14.5105 14.9607L13.8034 15.6678L14.1666 16.031L14.8737 15.3239ZM16.0793 15.3239C15.7463 15.6568 15.2066 15.6568 14.8737 15.3239L14.1666 16.031C14.89 16.7544 16.0629 16.7545 16.7864 16.031L16.0793 15.3239ZM13.5923 10.6258C13.5923 10.827 13.5663 11.0214 13.5178 11.2062L14.485 11.4603C14.5551 11.1933 14.5923 10.9135 14.5923 10.6258H13.5923ZM11.3161 8.34954C12.5732 8.34954 13.5923 9.36865 13.5923 10.6258H14.5923C14.5923 8.81637 13.1255 7.34954 11.3161 7.34954V8.34954ZM9.03992 10.6258C9.03992 9.36863 10.0591 8.34954 11.3161 8.34954V7.34954C9.50676 7.34954 8.03992 8.81636 8.03992 10.6258H9.03992ZM11.3161 12.902C10.059 12.902 9.03992 11.8828 9.03992 10.6258H8.03992C8.03992 12.4351 9.50675 13.902 11.3161 13.902V12.902ZM11.9795 12.8039C11.7702 12.8675 11.5476 12.902 11.3161 12.902V13.902C11.6473 13.902 11.9679 13.8527 12.2705 13.7606L11.9795 12.8039ZM12.4786 12.9287L12.2321 12.6823L11.525 13.3894L11.7714 13.6358L12.4786 12.9287ZM12.2321 12.6823C11.8992 12.3493 11.8992 11.8096 12.2321 11.4767L11.525 10.7695C10.8016 11.493 10.8016 12.6659 11.525 13.3894L12.2321 12.6823ZM12.2321 11.4767C12.565 11.1438 13.1048 11.1438 13.4377 11.4767L14.1448 10.7696C13.4214 10.0461 12.2485 10.0461 11.525 10.7695L12.2321 11.4767ZM13.4377 11.4767L13.6478 11.6868L14.3549 10.9797L14.1448 10.7696L13.4377 11.4767Z" fill="white"/>
</svg>
