<svg width="37" height="31" viewBox="0 0 37 31" fill="none" xmlns="http://www.w3.org/2000/svg">
<path d="M31.5801 16.2181H27.9583C27.4653 16.2181 26.9881 16.2854 26.5339 16.4093C25.638 14.648 23.8088 13.4379 21.701 13.4379H15.299C13.1912 13.4379 11.362 14.648 10.4661 16.4093C10.0119 16.2854 9.53465 16.2181 9.04173 16.2181H5.41992C2.43138 16.2181 0 18.6494 0 21.638V27.4278C0 29.2209 1.45883 30.6797 3.25195 30.6797H33.748C35.5412 30.6797 37 29.2209 37 27.4278V21.638C37 18.6494 34.5686 16.2181 31.5801 16.2181ZM9.87907 18.8579V28.5118H3.25195C2.65424 28.5118 2.16797 28.0255 2.16797 27.4278V21.6381C2.16797 19.8449 3.6268 18.3861 5.41992 18.3861H9.04173C9.336 18.3861 9.62094 18.4261 9.89222 18.4997C9.88442 18.6183 9.87907 18.7375 9.87907 18.8579ZM24.953 28.5118H12.047V18.8579C12.047 17.0647 13.5059 15.6059 15.299 15.6059H21.701C23.4941 15.6059 24.953 17.0647 24.953 18.8579V28.5118ZM34.832 27.4278C34.832 28.0255 34.3458 28.5118 33.748 28.5118H27.1209V18.8579C27.1209 18.7374 27.1156 18.6182 27.1078 18.4996C27.3791 18.4261 27.664 18.386 27.9583 18.386H31.5801C33.3732 18.386 34.832 19.8449 34.832 21.638V27.4278Z" fill="white"/>
<path d="M7.23125 5.98178C4.57556 5.98178 2.41504 8.14231 2.41504 10.798C2.41497 13.4537 4.57556 15.6142 7.23125 15.6142C9.88687 15.6142 12.0475 13.4537 12.0475 10.798C12.0475 8.14231 9.88694 5.98178 7.23125 5.98178ZM7.23118 13.4462C5.77091 13.4462 4.58294 12.2583 4.58294 10.798C4.58294 9.33772 5.77091 8.14975 7.23118 8.14975C8.69145 8.14975 9.87943 9.33772 9.87943 10.798C9.87943 12.2583 8.69145 13.4462 7.23118 13.4462Z" fill="white"/>
<path d="M18.4998 0C14.9519 0 12.0654 2.88643 12.0654 6.43439C12.0654 9.98234 14.9519 12.8688 18.4998 12.8688C22.0478 12.8688 24.9342 9.98234 24.9342 6.43439C24.9342 2.88651 22.0478 0 18.4998 0ZM18.4998 10.7008C16.1473 10.7008 14.2334 8.78692 14.2334 6.43439C14.2334 4.08192 16.1473 2.16797 18.4998 2.16797C20.8524 2.16797 22.7662 4.08185 22.7662 6.43439C22.7662 8.78692 20.8524 10.7008 18.4998 10.7008Z" fill="white"/>
<path d="M29.7693 5.98178C27.1137 5.98178 24.9531 8.14231 24.9531 10.798C24.9532 13.4537 27.1137 15.6142 29.7693 15.6142C32.425 15.6142 34.5856 13.4537 34.5856 10.798C34.5856 8.14231 32.425 5.98178 29.7693 5.98178ZM29.7693 13.4462C28.3091 13.4462 27.1211 12.2583 27.1211 10.798C27.1212 9.33772 28.3091 8.14975 29.7693 8.14975C31.2296 8.14975 32.4176 9.33772 32.4176 10.798C32.4176 12.2583 31.2296 13.4462 29.7693 13.4462Z" fill="white"/>
</svg>
